<svg width="220" height="218" viewBox="0 0 220 218" fill="none" xmlns="http://www.w3.org/2000/svg">
<circle cx="124.172" cy="5.67647" r="3.54777" fill="white" fill-opacity="0.46"/>
<circle cx="141.556" cy="5.32169" r="3.193" fill="white" fill-opacity="0.46"/>
<circle cx="158.231" cy="5.67645" r="2.83822" fill="white" fill-opacity="0.46"/>
<circle cx="174.196" cy="5.32167" r="2.48344" fill="white" fill-opacity="0.46"/>
<circle cx="189.452" cy="5.67646" r="2.12866" fill="white" fill-opacity="0.46"/>
<circle cx="203.998" cy="5.32168" r="1.77389" fill="white" fill-opacity="0.46"/>
<circle cx="217.834" cy="5.67643" r="1.41911" fill="white" fill-opacity="0.46"/>
<circle cx="26.6088" cy="5.32166" r="5.32166" fill="white" fill-opacity="0.46"/>
<circle cx="47.5401" cy="5.67645" r="4.96688" fill="white" fill-opacity="0.46"/>
<circle cx="67.763" cy="5.32167" r="4.61211" fill="white" fill-opacity="0.46"/>
<circle cx="87.2754" cy="5.67646" r="4.25733" fill="white" fill-opacity="0.46"/>
<circle cx="106.078" cy="5.32168" r="3.90255" fill="white" fill-opacity="0.46"/>
<circle cx="4.96736" cy="122.753" r="3.54777" transform="rotate(90 4.96736 122.753)" fill="white" fill-opacity="0.46"/>
<circle cx="5.32214" cy="140.137" r="3.193" transform="rotate(90 5.32214 140.137)" fill="white" fill-opacity="0.46"/>
<circle cx="4.96744" cy="156.812" r="2.83822" transform="rotate(90 4.96744 156.812)" fill="white" fill-opacity="0.46"/>
<circle cx="5.32222" cy="172.777" r="2.48344" transform="rotate(90 5.32222 172.777)" fill="white" fill-opacity="0.46"/>
<circle cx="4.96704" cy="188.032" r="2.12866" transform="rotate(90 4.96704 188.032)" fill="white" fill-opacity="0.46"/>
<circle cx="5.32182" cy="202.578" r="1.77389" transform="rotate(90 5.32182 202.578)" fill="white" fill-opacity="0.46"/>
<circle cx="4.96712" cy="216.414" r="1.41911" transform="rotate(90 4.96712 216.414)" fill="white" fill-opacity="0.46"/>
<circle cx="5.32189" cy="25.1892" r="5.32166" transform="rotate(90 5.32189 25.1892)" fill="white" fill-opacity="0.46"/>
<circle cx="4.96671" cy="46.1211" r="4.96688" transform="rotate(90 4.96671 46.1211)" fill="white" fill-opacity="0.46"/>
<circle cx="5.32149" cy="66.3434" r="4.61211" transform="rotate(90 5.32149 66.3434)" fill="white" fill-opacity="0.46"/>
<circle cx="4.96679" cy="85.8561" r="4.25733" transform="rotate(90 4.96679 85.8561)" fill="white" fill-opacity="0.46"/>
<circle cx="5.32157" cy="104.659" r="3.90255" transform="rotate(90 5.32157 104.659)" fill="white" fill-opacity="0.46"/>
<circle cx="5.67644" cy="5.67644" r="5.67644" fill="white" fill-opacity="0.46"/>
</svg>
